<mxfile host="65bd71144e">
    <diagram id="HKdggWdnjwy7zNuLl5bW" name="Page-1">
        <mxGraphModel dx="667" dy="484" grid="1" gridSize="10" guides="1" tooltips="1" connect="1" arrows="1" fold="1" page="1" pageScale="1" pageWidth="850" pageHeight="1100" math="0" shadow="0">
            <root>
                <mxCell id="0"/>
                <mxCell id="1" parent="0"/>
                <mxCell id="21" value="BIG-O-PLATFORM" style="swimlane;fontSize=28;startSize=40;fillColor=#f8cecc;strokeColor=#b85450;" parent="1" vertex="1">
                    <mxGeometry x="40" y="30" width="1080" height="890" as="geometry"/>
                </mxCell>
                <mxCell id="59" style="edgeStyle=none;html=1;exitX=1;exitY=0.5;exitDx=0;exitDy=0;entryX=0;entryY=0.5;entryDx=0;entryDy=0;fontSize=13;" parent="21" source="22" target="54" edge="1">
                    <mxGeometry relative="1" as="geometry"/>
                </mxCell>
                <mxCell id="22" value="home" style="swimlane;fontSize=20;startSize=30;fillColor=#dae8fc;strokeColor=#6c8ebf;" parent="21" vertex="1">
                    <mxGeometry x="20" y="50" width="360" height="220" as="geometry"/>
                </mxCell>
                <mxCell id="23" value="templates" style="swimlane;fontSize=15;fillColor=#fff2cc;strokeColor=#d6b656;" parent="22" vertex="1">
                    <mxGeometry x="20" y="40" width="320" height="160" as="geometry"/>
                </mxCell>
                <mxCell id="26" value="log-in.html" style="swimlane;fontSize=15;fillColor=#d5e8d4;strokeColor=#82b366;" parent="23" vertex="1">
                    <mxGeometry x="20" y="40" width="120" height="100" as="geometry"/>
                </mxCell>
                <mxCell id="24" value="about.html" style="swimlane;fontSize=15;fillColor=#d5e8d4;strokeColor=#82b366;" parent="23" vertex="1">
                    <mxGeometry x="170" y="40" width="120" height="100" as="geometry"/>
                </mxCell>
                <mxCell id="54" value="register" style="swimlane;fontSize=20;startSize=30;fillColor=#dae8fc;strokeColor=#6c8ebf;" parent="21" vertex="1">
                    <mxGeometry x="690" y="50" width="360" height="220" as="geometry"/>
                </mxCell>
                <mxCell id="55" value="templates" style="swimlane;fontSize=15;fillColor=#fff2cc;strokeColor=#d6b656;" parent="54" vertex="1">
                    <mxGeometry x="20" y="40" width="320" height="160" as="geometry"/>
                </mxCell>
                <mxCell id="56" value="register-student.html" style="swimlane;fontSize=12;fillColor=#d5e8d4;strokeColor=#82b366;" parent="55" vertex="1">
                    <mxGeometry x="20" y="40" width="120" height="100" as="geometry"/>
                </mxCell>
                <mxCell id="57" value="register-teacher.html" style="swimlane;fontSize=12;fillColor=#d5e8d4;strokeColor=#82b366;" parent="55" vertex="1">
                    <mxGeometry x="170" y="40" width="120" height="100" as="geometry"/>
                </mxCell>
                <mxCell id="60" style="edgeStyle=none;html=1;exitX=0.5;exitY=1;exitDx=0;exitDy=0;entryX=0.5;entryY=0;entryDx=0;entryDy=0;fontSize=13;" parent="21" source="26" target="30" edge="1">
                    <mxGeometry relative="1" as="geometry"/>
                </mxCell>
                <mxCell id="86" style="edgeStyle=none;html=1;exitX=0.5;exitY=0;exitDx=0;exitDy=0;entryX=0.25;entryY=1;entryDx=0;entryDy=0;fontSize=13;" parent="21" source="84" target="26" edge="1">
                    <mxGeometry relative="1" as="geometry"/>
                </mxCell>
                <mxCell id="30" value="teacher" style="swimlane;fontSize=20;startSize=30;fillColor=#dae8fc;strokeColor=#6c8ebf;" parent="21" vertex="1">
                    <mxGeometry x="25" y="300" width="500" height="570" as="geometry"/>
                </mxCell>
                <mxCell id="31" value="templates" style="swimlane;fontSize=15;fillColor=#fff2cc;strokeColor=#d6b656;" parent="30" vertex="1">
                    <mxGeometry x="20" y="40" width="460" height="510" as="geometry"/>
                </mxCell>
                <mxCell id="66" style="edgeStyle=none;html=1;exitX=0.25;exitY=1;exitDx=0;exitDy=0;entryX=0.25;entryY=0;entryDx=0;entryDy=0;fontSize=13;" parent="31" source="32" target="37" edge="1">
                    <mxGeometry relative="1" as="geometry"/>
                </mxCell>
                <mxCell id="67" style="edgeStyle=none;html=1;exitX=0.5;exitY=1;exitDx=0;exitDy=0;entryX=0.25;entryY=0;entryDx=0;entryDy=0;fontSize=13;" parent="31" source="32" target="36" edge="1">
                    <mxGeometry relative="1" as="geometry"/>
                </mxCell>
                <mxCell id="68" style="edgeStyle=none;html=1;exitX=0.75;exitY=1;exitDx=0;exitDy=0;entryX=0.5;entryY=0;entryDx=0;entryDy=0;fontSize=13;" parent="31" source="32" target="33" edge="1">
                    <mxGeometry relative="1" as="geometry"/>
                </mxCell>
                <mxCell id="69" style="edgeStyle=none;html=1;exitX=1;exitY=0.5;exitDx=0;exitDy=0;entryX=0;entryY=0.5;entryDx=0;entryDy=0;fontSize=13;" parent="31" source="32" target="35" edge="1">
                    <mxGeometry relative="1" as="geometry"/>
                </mxCell>
                <mxCell id="70" style="edgeStyle=none;html=1;exitX=1;exitY=0.75;exitDx=0;exitDy=0;entryX=0;entryY=0.25;entryDx=0;entryDy=0;fontSize=13;" parent="31" source="32" target="45" edge="1">
                    <mxGeometry relative="1" as="geometry"/>
                </mxCell>
                <mxCell id="32" value="home.html" style="swimlane;fontSize=15;fillColor=#d5e8d4;strokeColor=#82b366;" parent="31" vertex="1">
                    <mxGeometry x="20" y="40" width="120" height="100" as="geometry"/>
                </mxCell>
                <mxCell id="74" style="edgeStyle=none;html=1;exitX=0.5;exitY=0;exitDx=0;exitDy=0;entryX=0.75;entryY=1;entryDx=0;entryDy=0;fontSize=13;" parent="31" source="33" target="32" edge="1">
                    <mxGeometry relative="1" as="geometry"/>
                </mxCell>
                <mxCell id="33" value="create-class.html" style="swimlane;fontSize=14;fillColor=#d5e8d4;strokeColor=#82b366;" parent="31" vertex="1">
                    <mxGeometry x="325" y="400" width="120" height="100" as="geometry"/>
                </mxCell>
                <mxCell id="72" style="edgeStyle=none;html=1;exitX=0;exitY=0.5;exitDx=0;exitDy=0;entryX=1;entryY=0.5;entryDx=0;entryDy=0;fontSize=13;" parent="31" source="35" target="32" edge="1">
                    <mxGeometry relative="1" as="geometry"/>
                </mxCell>
                <mxCell id="85" style="edgeStyle=none;html=1;exitX=1;exitY=1;exitDx=0;exitDy=0;entryX=1;entryY=0.25;entryDx=0;entryDy=0;fontSize=13;" parent="31" source="35" target="84" edge="1">
                    <mxGeometry relative="1" as="geometry"/>
                </mxCell>
                <mxCell id="35" value="profile.html" style="swimlane;fontSize=15;fillColor=#d5e8d4;strokeColor=#82b366;" parent="31" vertex="1">
                    <mxGeometry x="325" y="40" width="120" height="100" as="geometry"/>
                </mxCell>
                <mxCell id="73" style="edgeStyle=none;html=1;exitX=0.25;exitY=0;exitDx=0;exitDy=0;entryX=0.5;entryY=1;entryDx=0;entryDy=0;fontSize=13;" parent="31" source="36" target="32" edge="1">
                    <mxGeometry relative="1" as="geometry"/>
                </mxCell>
                <mxCell id="36" value="view-class.html" style="swimlane;fontSize=15;fillColor=#d5e8d4;strokeColor=#82b366;" parent="31" vertex="1">
                    <mxGeometry x="60" y="290" width="120" height="100" as="geometry"/>
                </mxCell>
                <mxCell id="75" style="edgeStyle=none;html=1;exitX=0.25;exitY=0;exitDx=0;exitDy=0;entryX=0.25;entryY=1;entryDx=0;entryDy=0;fontSize=13;" parent="31" source="37" target="32" edge="1">
                    <mxGeometry relative="1" as="geometry"/>
                </mxCell>
                <mxCell id="37" value="view-student.html" style="swimlane;fontSize=14;fillColor=#d5e8d4;strokeColor=#82b366;" parent="31" vertex="1">
                    <mxGeometry x="10" y="400" width="120" height="100" as="geometry"/>
                </mxCell>
                <mxCell id="71" style="edgeStyle=none;html=1;exitX=0;exitY=0.25;exitDx=0;exitDy=0;entryX=1;entryY=0.75;entryDx=0;entryDy=0;fontSize=13;" parent="31" source="45" target="32" edge="1">
                    <mxGeometry relative="1" as="geometry"/>
                </mxCell>
                <mxCell id="45" value="modules.html" style="swimlane;fontSize=15;fillColor=#d5e8d4;strokeColor=#82b366;" parent="31" vertex="1">
                    <mxGeometry x="245" y="150" width="120" height="100" as="geometry"/>
                </mxCell>
                <mxCell id="84" value="log-out.html" style="swimlane;fontSize=15;fillColor=#f8cecc;strokeColor=#b85450;" parent="31" vertex="1">
                    <mxGeometry x="195" y="350" width="120" height="100" as="geometry"/>
                </mxCell>
                <mxCell id="38" value="student" style="swimlane;fontSize=20;startSize=30;fillColor=#dae8fc;strokeColor=#6c8ebf;" parent="21" vertex="1">
                    <mxGeometry x="555" y="300" width="500" height="570" as="geometry"/>
                </mxCell>
                <mxCell id="39" value="templates" style="swimlane;fontSize=15;fillColor=#fff2cc;strokeColor=#d6b656;" parent="38" vertex="1">
                    <mxGeometry x="20" y="40" width="460" height="510" as="geometry"/>
                </mxCell>
                <mxCell id="76" style="edgeStyle=none;html=1;exitX=0.5;exitY=1;exitDx=0;exitDy=0;entryX=0.5;entryY=0;entryDx=0;entryDy=0;fontSize=13;" parent="39" source="40" target="44" edge="1">
                    <mxGeometry relative="1" as="geometry"/>
                </mxCell>
                <mxCell id="78" style="edgeStyle=none;html=1;exitX=1;exitY=0.75;exitDx=0;exitDy=0;entryX=0.5;entryY=0;entryDx=0;entryDy=0;fontSize=13;" parent="39" source="40" target="41" edge="1">
                    <mxGeometry relative="1" as="geometry"/>
                </mxCell>
                <mxCell id="80" style="edgeStyle=none;html=1;exitX=1;exitY=0.25;exitDx=0;exitDy=0;entryX=0.5;entryY=0;entryDx=0;entryDy=0;fontSize=13;" parent="39" source="40" target="42" edge="1">
                    <mxGeometry relative="1" as="geometry"/>
                </mxCell>
                <mxCell id="40" value="home.html" style="swimlane;fontSize=15;fillColor=#d5e8d4;strokeColor=#82b366;" parent="39" vertex="1">
                    <mxGeometry x="20" y="40" width="120" height="100" as="geometry"/>
                </mxCell>
                <mxCell id="79" style="edgeStyle=none;html=1;exitX=0.5;exitY=0;exitDx=0;exitDy=0;entryX=1;entryY=0.75;entryDx=0;entryDy=0;fontSize=13;" parent="39" source="41" target="40" edge="1">
                    <mxGeometry relative="1" as="geometry"/>
                </mxCell>
                <mxCell id="41" value="join-class.html" style="swimlane;fontSize=15;fillColor=#d5e8d4;strokeColor=#82b366;" parent="39" vertex="1">
                    <mxGeometry x="170" y="170" width="120" height="100" as="geometry"/>
                </mxCell>
                <mxCell id="81" style="edgeStyle=none;html=1;exitX=0.5;exitY=0;exitDx=0;exitDy=0;entryX=1;entryY=0.25;entryDx=0;entryDy=0;fontSize=13;" parent="39" source="42" target="40" edge="1">
                    <mxGeometry relative="1" as="geometry"/>
                </mxCell>
                <mxCell id="108" style="edgeStyle=none;html=1;exitX=0.5;exitY=1;exitDx=0;exitDy=0;entryX=0.5;entryY=0;entryDx=0;entryDy=0;fontSize=13;" parent="39" source="42" target="107" edge="1">
                    <mxGeometry relative="1" as="geometry"/>
                </mxCell>
                <mxCell id="42" value="profile.html" style="swimlane;fontSize=15;fillColor=#d5e8d4;strokeColor=#82b366;" parent="39" vertex="1">
                    <mxGeometry x="320" y="170" width="120" height="100" as="geometry"/>
                </mxCell>
                <mxCell id="77" style="edgeStyle=none;html=1;exitX=0.5;exitY=0;exitDx=0;exitDy=0;entryX=0.5;entryY=1;entryDx=0;entryDy=0;fontSize=13;" parent="39" source="44" target="40" edge="1">
                    <mxGeometry relative="1" as="geometry"/>
                </mxCell>
                <mxCell id="44" value="modules.html" style="swimlane;fontSize=15;fillColor=#d5e8d4;strokeColor=#82b366;" parent="39" vertex="1">
                    <mxGeometry x="20" y="170" width="120" height="100" as="geometry"/>
                </mxCell>
                <mxCell id="107" value="log-out.html" style="swimlane;fontSize=15;fillColor=#f8cecc;strokeColor=#b85450;" parent="39" vertex="1">
                    <mxGeometry x="320" y="320" width="120" height="100" as="geometry"/>
                </mxCell>
                <mxCell id="109" style="edgeStyle=none;html=1;exitX=0;exitY=0.75;exitDx=0;exitDy=0;entryX=1;entryY=0.75;entryDx=0;entryDy=0;fontSize=13;" parent="21" source="107" target="26" edge="1">
                    <mxGeometry relative="1" as="geometry"/>
                </mxCell>
                <mxCell id="62" style="edgeStyle=none;html=1;exitX=0.75;exitY=1;exitDx=0;exitDy=0;entryX=0.25;entryY=0;entryDx=0;entryDy=0;fontSize=13;" parent="21" source="26" target="38" edge="1">
                    <mxGeometry relative="1" as="geometry"/>
                </mxCell>
                <mxCell id="110" style="edgeStyle=none;html=1;exitX=0.5;exitY=1;exitDx=0;exitDy=0;fontSize=12;" edge="1" parent="1" source="57">
                    <mxGeometry relative="1" as="geometry">
                        <mxPoint x="980" y="270" as="targetPoint"/>
                    </mxGeometry>
                </mxCell>
            </root>
        </mxGraphModel>
    </diagram>
</mxfile>